<svg xmlns="http://www.w3.org/2000/svg" xml:space="preserve" width="800" height="800" viewBox="0 0 473.931 473.931"><circle cx="236.966" cy="236.966" r="236.966" style="fill:#1b468e"/><path d="M404.518 69.38c92.545 92.549 92.552 242.59 0 335.142-92.541 92.541-242.593 92.545-335.142 0z" style="fill:#16467c"/><path d="M469.625 281.859 311.913 124.155l-46.892 46.892-34.334-34.338-34.144 34.144-27.595-27.595-34.559 34.559 61.93 61.93-22.189 22.192-17.186-17.186-38.147 38.144 182.205 182.205c85.649-23.997 151.661-94.877 168.623-183.243" style="fill:#143e68"/><path d="M285.186 195.829c-22.409 0-40.591-18.14-40.591-40.497 0-22.365 18.181-40.501 40.591-40.501s40.587 18.14 40.587 40.501c0 22.357-18.178 40.497-40.587 40.497m-33.205 39.019c0-22.372-18.17-40.493-40.591-40.493s-40.587 18.125-40.587 40.493c0 .913.075 1.804.135 2.705h-.135v70.192h81.177v-70.192h-.138c.061-.898.139-1.788.139-2.705m-40.594-45.9c16.434 0 29.762-13.291 29.762-29.695 0-16.393-13.328-29.695-29.762-29.695-16.43 0-29.762 13.302-29.762 29.695 0 16.404 13.332 29.695 29.762 29.695m129.151 69.473c0-30.51-24.774-55.236-55.348-55.236s-55.348 24.722-55.348 55.236c0 1.235.101 2.455.183 3.667h-.183v95.729h110.696v-95.725h-.187c.086-1.213.187-2.436.187-3.671m-188.185-68.485c-18.353 0-33.208 14.829-33.208 33.133 0 .741.056 1.478.109 2.215h-.109v57.44h66.416v-57.44h-.109c.049-.737.109-1.474.109-2.215-.003-18.309-14.869-33.133-33.208-33.133m0-4.416c13.44 0 24.348-10.881 24.348-24.299s-10.907-24.295-24.348-24.295c-13.444 0-24.359 10.877-24.359 24.295s10.915 24.299 24.359 24.299" style="fill:#fff"/></svg>